<?xml version="1.0" encoding="UTF-8" standalone="no"?>
<!DOCTYPE svg PUBLIC "-//W3C//DTD SVG 1.1//EN" "http://www.w3.org/Graphics/SVG/1.1/DTD/svg11.dtd">
<!-- Generated by Microsoft Visio, SVG Export Database_LargeClass_v3.svg Page-3 -->
<svg xmlns="http://www.w3.org/2000/svg" xmlns:xlink="http://www.w3.org/1999/xlink" xmlns:ev="http://www.w3.org/2001/xml-events"
		xmlns:v="http://schemas.microsoft.com/visio/2003/SVGExtensions/" width="11.6929in" height="8.26772in"
		viewBox="0 0 841.89 595.276" xml:space="preserve" color-interpolation-filters="sRGB" class="st11">
	<v:documentProperties v:langID="1033" v:metric="true" v:viewMarkup="false">
		<v:userDefs>
			<v:ud v:nameU="msvSubprocessMaster" v:prompt="" v:val="VT4(Rectangle)"/>
			<v:ud v:nameU="msvNoAutoConnect" v:val="VT0(1):26"/>
		</v:userDefs>
	</v:documentProperties>

	<style type="text/css">
	<![CDATA[
		.st1 {fill:url(#grad0-4);stroke:#3c63ac;stroke-width:0.75}
		.st2 {fill:#3c63ac;font-family:Calibri;font-size:0.833336em}
		.st3 {font-size:1em}
		.st4 {stroke:#4672c4;stroke-linecap:round;stroke-linejoin:round;stroke-width:1}
		.st5 {stroke:#ff0000;stroke-linecap:round;stroke-linejoin:round;stroke-width:1}
		.st6 {fill:url(#grad0-4)}
		.st7 {stroke:#3c63ac;stroke-width:0.75}
		.st8 {fill:none;stroke:none;stroke-width:0.25}
		.st9 {fill:#4672c4;font-family:Calibri;font-size:1.00001em}
		.st10 {fill:none;stroke:#759fcc;stroke-dasharray:10.5,7.5;stroke-width:1.5}
		.st11 {fill:none;fill-rule:evenodd;font-size:12px;overflow:visible;stroke-linecap:square;stroke-miterlimit:3}
	]]>
	</style>

	<defs id="Patterns_And_Gradients">
		<linearGradient id="grad0-4" x1="0" y1="0" x2="1" y2="0" gradientTransform="rotate(60 0.5 0.5)">
			<stop offset="0" stop-color="#e8ebf4" stop-opacity="1"/>
			<stop offset="0.24" stop-color="#f4f5f9" stop-opacity="1"/>
			<stop offset="0.54" stop-color="#feffff" stop-opacity="1"/>
		</linearGradient>
	</defs>
	<g v:mID="7" v:index="3" v:groupContext="foregroundPage">
		<v:userDefs>
			<v:ud v:nameU="msvThemeOrder" v:val="VT0(0):26"/>
		</v:userDefs>
		<title>Page-3</title>
		<v:pageProperties v:drawingScale="0.0393701" v:pageScale="0.0393701" v:drawingUnits="24" v:shadowOffsetX="8.50394"
				v:shadowOffsetY="-8.50394"/>
		<g id="shape1-1" v:mID="1" v:groupContext="shape" transform="translate(575.905,-379.842)">
			<title>Rectangle</title>
			<desc>createStatement()</desc>
			<v:userDefs>
				<v:ud v:nameU="visVersion" v:val="VT0(15):26"/>
			</v:userDefs>
			<v:textBlock v:margins="rect(4,4,4,4)" v:tabSpace="42.5197"/>
			<v:textRect cx="42.5197" cy="583.937" width="85.04" height="22.6772"/>
			<rect x="0" y="572.598" width="85.0394" height="22.6772" class="st1"/>
			<text x="5.27" y="586.94" class="st2" v:langID="1033"><v:paragraph v:horizAlign="1"/><v:tabList/>createStatement()</text>		</g>
		<g id="shape2-6" v:mID="2" v:groupContext="shape" transform="translate(311.811,-488.976)">
			<title>Rectangle.2</title>
			<desc>insert(String, String, Sting)</desc>
			<v:userDefs>
				<v:ud v:nameU="visVersion" v:val="VT0(15):26"/>
			</v:userDefs>
			<v:textBlock v:margins="rect(4,4,4,4)" v:tabSpace="42.5197"/>
			<v:textRect cx="56.6929" cy="575.433" width="113.39" height="39.685"/>
			<rect x="0" y="555.591" width="113.386" height="39.685" class="st1"/>
			<text x="16.23" y="572.43" class="st2" v:langID="1033"><v:paragraph v:horizAlign="1"/><v:tabList/>insert(String, String, <tspan
						x="45.08" dy="1.2em" class="st3">Sting)</tspan></text>		</g>
		<g id="shape3-11" v:mID="3" v:groupContext="shape" transform="translate(699.685,-379.842)">
			<title>Rectangle.3</title>
			<desc>closeConnection()</desc>
			<v:userDefs>
				<v:ud v:nameU="visVersion" v:val="VT0(15):26"/>
			</v:userDefs>
			<v:textBlock v:margins="rect(4,4,4,4)" v:tabSpace="42.5197"/>
			<v:textRect cx="56.6929" cy="583.937" width="113.39" height="22.6772"/>
			<rect x="0" y="572.598" width="113.386" height="22.6772" class="st1"/>
			<text x="20.07" y="586.94" class="st2" v:langID="1033"><v:paragraph v:horizAlign="1"/><v:tabList/>closeConnection()</text>		</g>
		<g id="shape4-15" v:mID="4" v:groupContext="shape" transform="translate(311.811,-439.37)">
			<title>Rectangle.4</title>
			<desc>createTable(String, String[], String[], int)</desc>
			<v:userDefs>
				<v:ud v:nameU="visVersion" v:val="VT0(15):26"/>
			</v:userDefs>
			<v:textBlock v:margins="rect(4,4,4,4)" v:tabSpace="42.5197"/>
			<v:textRect cx="56.6929" cy="574.016" width="113.39" height="42.5197"/>
			<rect x="0" y="552.756" width="113.386" height="42.5197" class="st1"/>
			<text x="18.09" y="571.02" class="st2" v:langID="1033"><v:paragraph v:horizAlign="1"/><v:tabList/>createTable(String, <tspan
						x="15.15" dy="1.2em" class="st3">String[], String[], int)</tspan></text>		</g>
		<g id="shape5-20" v:mID="5" v:groupContext="shape" transform="translate(311.811,-409.606)">
			<title>Rectangle.5</title>
			<desc>dropTable(String)</desc>
			<v:userDefs>
				<v:ud v:nameU="visVersion" v:val="VT0(15):26"/>
			</v:userDefs>
			<v:textBlock v:margins="rect(4,4,4,4)" v:tabSpace="42.5197"/>
			<v:textRect cx="56.6929" cy="583.937" width="113.39" height="22.6772"/>
			<rect x="0" y="572.598" width="113.386" height="22.6772" class="st1"/>
			<text x="21.09" y="586.94" class="st2" v:langID="1033"><v:paragraph v:horizAlign="1"/><v:tabList/>dropTable(String)</text>		</g>
		<g id="shape6-24" v:mID="6" v:groupContext="shape" transform="translate(311.811,-379.842)">
			<title>Rectangle.6</title>
			<desc>getLastId()</desc>
			<v:userDefs>
				<v:ud v:nameU="visVersion" v:val="VT0(15):26"/>
			</v:userDefs>
			<v:textBlock v:margins="rect(4,4,4,4)" v:tabSpace="42.5197"/>
			<v:textRect cx="56.6929" cy="583.937" width="113.39" height="22.6772"/>
			<rect x="0" y="572.598" width="113.386" height="22.6772" class="st1"/>
			<text x="35.13" y="586.94" class="st2" v:langID="1033"><v:paragraph v:horizAlign="1"/><v:tabList/>getLastId()</text>		</g>
		<g id="shape7-28" v:mID="7" v:groupContext="shape" transform="translate(311.811,-350.079)">
			<title>Rectangle.7</title>
			<desc>hasTable(String)</desc>
			<v:userDefs>
				<v:ud v:nameU="visVersion" v:val="VT0(15):26"/>
			</v:userDefs>
			<v:textBlock v:margins="rect(4,4,4,4)" v:tabSpace="42.5197"/>
			<v:textRect cx="56.6929" cy="583.937" width="113.39" height="22.6772"/>
			<rect x="0" y="572.598" width="113.386" height="22.6772" class="st1"/>
			<text x="23.75" y="586.94" class="st2" v:langID="1033"><v:paragraph v:horizAlign="1"/><v:tabList/>hasTable(String)</text>		</g>
		<g id="shape8-32" v:mID="8" v:groupContext="shape" transform="translate(311.811,-300.472)">
			<title>Rectangle.8</title>
			<desc>select(String, String, String, String)</desc>
			<v:userDefs>
				<v:ud v:nameU="visVersion" v:val="VT0(15):26"/>
			</v:userDefs>
			<v:textBlock v:margins="rect(4,4,4,4)" v:tabSpace="42.5197"/>
			<v:textRect cx="56.6929" cy="574.016" width="113.39" height="42.5197"/>
			<rect x="0" y="552.756" width="113.386" height="42.5197" class="st1"/>
			<text x="16" y="571.02" class="st2" v:langID="1033"><v:paragraph v:horizAlign="1"/><v:tabList/>select(String, String, <tspan
						x="29.11" dy="1.2em" class="st3">String, String)</tspan></text>		</g>
		<g id="shape9-37" v:mID="9" v:groupContext="shape" transform="translate(926.704,-186.046) rotate(57.4029)">
			<title>Sheet.9</title>
			<path d="M0 595.28 L82.43 595.28" class="st4"/>
		</g>
		<g id="shape10-40" v:mID="10" v:groupContext="shape" transform="translate(756.61,-320.158) rotate(33.8305)">
			<title>Sheet.10</title>
			<path d="M0 595.28 L53.46 595.28" class="st4"/>
		</g>
		<g id="shape11-43" v:mID="11" v:groupContext="shape" transform="translate(425.197,-391.181)">
			<title>Sheet.11</title>
			<path d="M0 595.28 L44.41 595.28" class="st4"/>
		</g>
		<g id="shape12-46" v:mID="12" v:groupContext="shape" transform="translate(93.7842,-260.63) rotate(-33.8305)">
			<title>Sheet.12</title>
			<path d="M0 595.28 L53.46 595.28" class="st4"/>
		</g>
		<g id="shape13-49" v:mID="13" v:groupContext="shape" transform="translate(-76.3108,-47.1483) rotate(-57.4029)">
			<title>Sheet.13</title>
			<path d="M0 595.28 L82.43 595.28" class="st4"/>
		</g>
		<g id="shape14-52" v:mID="14" v:groupContext="shape" transform="translate(1091.35,-263.727) rotate(52.6041)">
			<title>Sheet.14</title>
			<path d="M0 595.28 L133.8 595.28" class="st5"/>
		</g>
		<g id="shape15-55" v:mID="15" v:groupContext="shape" transform="translate(-87.3068,414.335) rotate(-110.682)">
			<title>Sheet.15</title>
			<path d="M0 595.28 L125.74 595.28" class="st4"/>
		</g>
		<g id="shape16-58" v:mID="16" v:groupContext="shape" transform="translate(699.685,799.37) rotate(180)">
			<title>Sheet.16</title>
			<path d="M0 595.28 L38.74 595.28" class="st5"/>
		</g>
		<g id="shape17-61" v:mID="17" v:groupContext="shape" transform="translate(170.079,-333.071)">
			<title>Rectangle.20</title>
			<desc>select(String, String)</desc>
			<v:userDefs>
				<v:ud v:nameU="visVersion" v:val="VT0(15):26"/>
			</v:userDefs>
			<v:textBlock v:margins="rect(4,4,4,4)" v:tabSpace="42.5197"/>
			<v:textRect cx="56.6929" cy="583.228" width="113.39" height="24.0945"/>
			<rect x="0" y="571.181" width="113.386" height="24.0945" class="st1"/>
			<text x="15.73" y="586.23" class="st2" v:langID="1033"><v:paragraph v:horizAlign="1"/><v:tabList/>select(String, String)</text>		</g>
		<g id="shape18-65" v:mID="18" v:groupContext="shape" transform="translate(170.079,-276.378)">
			<title>Rectangle.18</title>
			<desc>select(String, String, String)</desc>
			<v:userDefs>
				<v:ud v:nameU="visVersion" v:val="VT0(15):26"/>
			</v:userDefs>
			<v:textBlock v:margins="rect(4,4,4,4)" v:tabSpace="42.5197"/>
			<v:textRect cx="56.6929" cy="574.016" width="113.39" height="42.5197"/>
			<rect x="0" y="552.756" width="113.386" height="42.5197" class="st1"/>
			<text x="16" y="571.02" class="st2" v:langID="1033"><v:paragraph v:horizAlign="1"/><v:tabList/>select(String, String,<v:newlineChar/><tspan
						x="43.33" dy="1.2em" class="st3">String)</tspan></text>		</g>
		<g id="shape19-70" v:mID="19" v:groupContext="shape" transform="translate(662.288,-209.022) rotate(39.5226)">
			<title>Sheet.19</title>
			<path d="M0 595.28 L36.75 595.28" class="st4"/>
		</g>
		<g id="shape20-73" v:mID="20" v:groupContext="shape" transform="translate(-102.065,-155.926) rotate(-40.3645)">
			<title>Sheet.20</title>
			<path d="M0 595.28 L37.2 595.28" class="st4"/>
		</g>
		<g id="shape21-76" v:mID="21" v:groupContext="shape" transform="translate(170.079,-488.976)">
			<title>Rectangle.21</title>
			<desc>insert(String, String[], String[])</desc>
			<v:userDefs>
				<v:ud v:nameU="visVersion" v:val="VT0(15):26"/>
			</v:userDefs>
			<v:textBlock v:margins="rect(4,4,4,4)" v:tabSpace="42.5197"/>
			<v:textRect cx="56.6929" cy="575.433" width="113.39" height="39.685"/>
			<rect x="0" y="555.591" width="113.386" height="39.685" class="st1"/>
			<text x="13.16" y="572.43" class="st2" v:langID="1033"><v:paragraph v:horizAlign="1"/><v:tabList/>insert(String, String[], <tspan
						x="40.27" dy="1.2em" class="st3">String[])</tspan></text>		</g>
		<g id="shape22-81" v:mID="22" v:groupContext="shape" transform="translate(283.465,-508.819)">
			<title>Sheet.22</title>
			<path d="M0 595.28 L28.35 595.28" class="st4"/>
		</g>
		<g id="shape23-84" v:mID="23" v:groupContext="shape" transform="translate(621.26,-409.606)">
			<title>Cloud</title>
			<desc>connection</desc>
			<v:userDefs>
				<v:ud v:nameU="visVersion" v:prompt="" v:val="VT0(15):26"/>
			</v:userDefs>
			<v:textBlock v:margins="rect(4,4,4,4)" v:tabSpace="42.5197"/>
			<v:textRect cx="27.874" cy="574.37" width="55.75" height="41.811"/>
			<path d="M2.74 578.16 A4.4025 5.55516 0 0 1 4.86 567.49 A8.92778 11.2652 0 0 1 17.81 558.49 A10.2516 12.9356 0 0 1 28.91
						 556.48 A6.42864 8.11178 0 0 1 38.43 555.81 A7.31913 9.23542 0 0 1 50.06 559.15 A5.23338 6.60336 0 0 1 54.29
						 568.49 A6.48222 8.17911 0 0 1 49 581.83 A8.17784 10.3186 0 0 1 37.37 588.5 A9.64238 12.1665 0 0 1 21.51
						 591.17 A12.223 15.4226 0 0 1 7.77 588.5 A4.8222 6.08475 0 0 1 2.74 578.16 Z" class="st6"/>
			<path d="M2.74 578.16 A4.4025 5.55516 0 0 1 4.86 567.49 A8.92778 11.2652 0 0 1 17.81 558.49 A10.2516 12.9356 0 0 1 28.91
						 556.48 A6.42864 8.11178 0 0 1 38.43 555.81 A7.31913 9.23542 0 0 1 50.06 559.15 A5.23338 6.60336 0 0 1 54.29
						 568.49 A6.48222 8.17911 0 0 1 49 581.83 A8.17784 10.3186 0 0 1 37.37 588.5 A9.64238 12.1665 0 0 1 21.51
						 591.17 A12.223 15.4226 0 0 1 7.77 588.5 A4.8222 6.08475 0 0 1 2.74 578.16" class="st7"/>
			<path d="M5.65 578.5 A4.39034 5.53981 0 0 1 2.74 578.16" class="st7"/>
			<path d="M20.72 589.51 A4.40945 5.56393 -180 0 0 21.51 591.17" class="st7"/>
			<path d="M37.77 586.5 A3.5595 4.49144 0 0 1 37.37 588.5" class="st7"/>
			<path d="M45.83 576.49 A3.73507 4.71298 0 0 1 49 581.83" class="st7"/>
			<path d="M52.7 570.49 A3.40995 4.30274 -180 0 0 54.29 568.49" class="st7"/>
			<path d="M19.39 559.82 A5.25845 6.63499 -180 0 0 17.81 558.49" class="st7"/>
			<text x="5.18" y="577.37" class="st2" v:langID="1033"><v:paragraph v:horizAlign="1"/><v:tabList/>connection</text>		</g>
		<g id="shape24-95" v:mID="24" v:groupContext="shape" transform="translate(575.905,-497.48)">
			<title>Rectangle.24</title>
			<desc>isClosed()</desc>
			<v:userDefs>
				<v:ud v:nameU="visVersion" v:val="VT0(15):26"/>
			</v:userDefs>
			<v:textBlock v:margins="rect(4,4,4,4)" v:tabSpace="42.5197"/>
			<v:textRect cx="42.5197" cy="583.937" width="85.04" height="22.6772"/>
			<rect x="0" y="572.598" width="85.0394" height="22.6772" class="st1"/>
			<text x="22.86" y="586.94" class="st2" v:langID="1033"><v:paragraph v:horizAlign="1"/><v:tabList/>isClosed()</text>		</g>
		<g id="shape25-99" v:mID="25" v:groupContext="shape" transform="translate(1213.7,97.7953) rotate(90)">
			<title>Sheet.25</title>
			<path d="M0 595.28 L94.96 595.28" class="st5"/>
		</g>
		<g id="shape26-102" v:mID="26" v:groupContext="shape" transform="translate(469.606,681.732) rotate(180)">
			<title>Sheet.26</title>
			<path d="M0 595.28 L44.41 595.28" class="st4"/>
		</g>
		<g id="shape27-105" v:mID="27" v:groupContext="shape" transform="translate(469.606,-379.842)">
			<title>Rectangle.27</title>
			<desc>createStatement()</desc>
			<v:userDefs>
				<v:ud v:nameU="visVersion" v:val="VT0(15):26"/>
			</v:userDefs>
			<v:textBlock v:margins="rect(4,4,4,4)" v:tabSpace="42.5197"/>
			<v:textRect cx="42.5197" cy="583.937" width="85.04" height="22.6772"/>
			<rect x="0" y="572.598" width="85.0394" height="22.6772" class="st1"/>
			<text x="5.27" y="586.94" class="st2" v:langID="1033"><v:paragraph v:horizAlign="1"/><v:tabList/>createStatement()</text>		</g>
		<g id="shape28-109" v:mID="28" v:groupContext="shape" transform="translate(469.606,-497.48)">
			<title>Rectangle.28</title>
			<desc>isClosed()</desc>
			<v:userDefs>
				<v:ud v:nameU="visVersion" v:val="VT0(15):26"/>
			</v:userDefs>
			<v:textBlock v:margins="rect(4,4,4,4)" v:tabSpace="42.5197"/>
			<v:textRect cx="42.5197" cy="583.937" width="85.04" height="22.6772"/>
			<rect x="0" y="572.598" width="85.0394" height="22.6772" class="st1"/>
			<text x="22.86" y="586.94" class="st2" v:langID="1033"><v:paragraph v:horizAlign="1"/><v:tabList/>isClosed()</text>		</g>
		<g id="shape29-113" v:mID="29" v:groupContext="shape" transform="translate(575.905,681.732) rotate(180)">
			<title>Sheet.29</title>
			<path d="M0 595.28 L21.26 595.28" class="st4"/>
		</g>
		<g id="shape30-116" v:mID="30" v:groupContext="shape" transform="translate(575.905,799.37) rotate(180)">
			<title>Sheet.30</title>
			<path d="M0 595.28 L21.26 595.28" class="st4"/>
		</g>
		<g id="shape31-119" v:mID="31" v:groupContext="shape" transform="translate(479.087,-439.37)">
			<title>Sheet.31</title>
			<desc>delegate methods</desc>
			<v:textBlock v:margins="rect(4,4,4,4)" v:tabSpace="42.5197"/>
			<v:textRect cx="33.0394" cy="581.652" width="66.08" height="27.2475"/>
			<rect x="0" y="568.028" width="66.0787" height="27.2475" class="st8"/>
			<text x="11.85" y="578.05" class="st9" v:langID="1033"><v:paragraph v:horizAlign="1"/><v:tabList/>delegate<v:lf/><tspan
						x="11.44" dy="1.2em" class="st3">methods</tspan></text>		</g>
		<g id="shape33-123" v:mID="33" v:groupContext="shape" transform="translate(1105.51,105.287) rotate(90)">
			<title>Sheet.33</title>
			<path d="M0 595.28 L17.3 595.28" class="st4"/>
		</g>
		<g id="shape34-126" v:mID="34" v:groupContext="shape" transform="translate(1105.51,161.98) rotate(90)">
			<title>Sheet.34</title>
			<path d="M0 595.28 L23.62 595.28" class="st4"/>
		</g>
		<g id="shape35-129" v:mID="35" v:groupContext="shape" transform="translate(566.929,-368.504)">
			<title>Sheet.35</title>
			<path d="M0 595.28 L255.12 595.28 L255.12 425.2 L0 425.2 L0 595.28 Z" class="st10"/>
		</g>
	</g>
</svg>
